<?xml version="1.0" encoding="UTF-8" standalone="no"?>
<!DOCTYPE svg PUBLIC "-//W3C//DTD SVG 1.1//EN" "http://www.w3.org/Graphics/SVG/1.1/DTD/svg11.dtd">
<svg width="100%" height="100%" viewBox="0 0 1500 750" version="1.1" xmlns="http://www.w3.org/2000/svg" xmlns:xlink="http://www.w3.org/1999/xlink" xml:space="preserve" xmlns:serif="http://www.serif.com/" style="fill-rule:evenodd;clip-rule:evenodd;stroke-linejoin:round;stroke-miterlimit:2;">
    <g transform="matrix(-4.16667,0,0,4.16667,1498.18,-375)">
        <rect x="-0.219" y="90" width="360" height="180" style="fill:rgb(35,31,32);"/>
    </g>
    <g transform="matrix(4.16667,0,0,4.16667,0,-568.717)">
        <path d="M240.46,170.291C240.46,179.994 232.201,189.104 215.69,197.613C202.341,204.509 187.294,209.528 170.547,212.677C178.755,215.233 182.86,220.079 182.86,227.229C182.86,233.697 176.89,239.314 164.949,244.082C154.294,248.337 143.522,250.464 132.635,250.464C127.952,250.464 123.62,249.447 119.64,247.409C115.66,245.373 113.672,243.375 113.672,241.42C113.672,238.79 115.959,236.286 120.531,233.907C121.352,233.737 121.762,234.031 121.762,234.788C119.265,236.552 118.018,238.485 118.018,240.584C118.018,243.021 121.478,244.238 128.396,244.238C138.363,244.238 149.268,241.828 161.112,237.011C172.951,232.19 178.876,227.45 178.876,222.802C178.876,220.604 176.766,218.702 172.548,217.094C167.857,215.404 162.057,214.559 155.146,214.559C152.098,214.559 148.261,215.23 143.63,216.57C139.001,217.912 136.335,218.579 135.633,218.579C132.234,218.579 130.535,217.855 130.535,216.41C130.535,215.472 133.434,214.237 139.23,212.707C145.025,211.177 150.441,210.408 155.479,210.408C162.036,210.408 171.933,207.716 185.168,202.329C198.4,196.946 209.817,190.858 219.422,184.075C230.549,176.359 236.112,169.744 236.112,164.23C236.112,161.519 233.882,159.333 229.428,157.68C224.974,156.025 219.755,155.199 213.776,155.199C206.273,155.199 196.952,156.263 185.813,158.383C187.449,159.998 188.27,161.951 188.27,164.243C188.27,164.584 183.063,168.787 172.654,176.856C159.08,187.389 147.412,196.922 137.646,205.458C127.875,213.993 118.779,222.468 110.356,230.873C103.103,237.925 99.419,241.786 99.303,242.464L99.83,242.72C102.286,240.677 105.325,238.378 108.953,235.821C109.421,235.909 109.83,236.165 110.182,236.594C107.606,240.019 105.034,243.444 102.461,246.87C97.78,252.86 94.794,255.859 93.51,255.859C91.636,255.859 89.94,254.793 88.421,252.667C86.899,250.791 86.14,249.094 86.14,247.559C86.14,245.432 89.825,240.278 97.195,232.099C103.98,224.437 111.817,216.517 120.711,208.338C140.831,189.945 159.606,173.891 177.04,160.181C159.153,164.178 140.39,169.75 120.752,176.895C102.747,183.445 93.747,187.482 93.747,189.013C93.747,189.44 94.155,189.653 94.976,189.653C100.115,189.653 117.002,183.071 145.631,169.913C147.268,169.744 148.2,170.042 148.436,170.812C145.744,173.463 136.854,178 121.771,184.415C106.329,191.089 96.447,194.427 92.123,194.427C90.835,194.427 89.606,193.959 88.438,193.02C87.266,192.077 86.685,190.97 86.685,189.688C86.685,187.638 93.41,183.455 106.87,177.138C121.499,170.223 137.005,164.376 153.388,159.597C173.635,153.622 190.955,150.633 205.351,150.633C228.757,150.633 240.46,157.188 240.46,170.291Z" style="fill:rgb(97,94,94);fill-rule:nonzero;"/>
    </g>
    <g transform="matrix(4.16667,0,0,4.16667,0,-181.287)">
        <path d="M265.174,109.252C259.085,105.846 250.076,104.141 238.137,104.141C223.741,104.141 206.42,107.131 186.175,113.104C169.789,117.884 154.281,123.731 139.653,130.646C128.733,135.77 122.247,139.49 120.186,141.807C168.328,118.649 208.7,113.494 208.7,113.494L207.732,114.175C208.428,114.015 209.132,113.842 209.821,113.688C192.389,127.399 173.614,143.452 153.491,161.846C144.601,170.024 136.763,177.945 129.977,185.607C122.607,193.786 118.923,198.94 118.923,201.066C118.923,202.601 119.682,204.3 121.203,206.175C122.723,208.302 124.418,209.368 126.292,209.368C127.576,209.368 130.562,206.369 135.243,200.377C137.817,196.951 140.389,193.526 142.964,190.101C142.613,189.673 142.203,189.416 141.735,189.33C138.107,191.886 135.068,194.188 132.612,196.227L132.085,195.971C132.552,194.27 141.325,185.497 158.407,169.659C161.097,178.932 164.84,186.593 169.639,192.633C175.954,200.885 183.498,205.009 192.276,205.009C196.254,205.009 200.172,203.82 204.032,201.446C206.839,199.745 209.061,197.878 210.697,195.843C210.113,194.909 209.176,194.612 207.894,194.95C203.798,198.615 198.647,200.443 192.45,200.443C186.482,200.443 181.626,196.082 177.884,187.353C175.545,181.846 173.789,175.277 172.618,167.651C174.726,168.066 176.836,168.272 178.943,168.272C193.575,168.272 208.504,165.634 223.725,160.354C237.89,155.584 249.713,149.536 259.2,142.213C268.679,134.892 273.421,128.119 273.421,121.9C273.421,116.536 270.671,112.32 265.174,109.252M252.987,136.966C242.509,144.348 230.119,150.627 215.831,155.802C200.136,161.488 186.021,164.332 173.489,164.332C169.974,164.332 167.22,164.009 165.231,163.369L170.37,158.98C180.073,150.496 191.763,140.947 205.444,130.343C215.848,122.281 221.051,118.082 221.051,117.741C221.051,115.452 220.23,113.504 218.593,111.889C229.732,109.767 239.051,108.706 246.557,108.706C261.327,108.706 268.714,111.934 268.714,118.38C268.714,123.389 263.472,129.584 252.987,136.966Z" style="fill:rgb(97,94,94);fill-rule:nonzero;"/>
    </g>
    <g transform="matrix(4.16667,0,0,4.16667,0,-442.582)">
        <path d="M72.567,176.708C72.567,180.087 69.285,183.256 62.723,186.216C57.416,188.615 51.436,190.363 44.78,191.46C48.013,192.349 49.629,194.038 49.629,196.524C49.629,198.774 47.254,200.73 42.509,202.388C38.274,203.87 33.992,204.609 29.666,204.609C27.805,204.609 26.082,204.252 24.502,203.535C22.919,202.817 22.129,202.117 22.129,201.43C22.129,200.504 23.032,199.623 24.843,198.787C25.168,198.729 25.331,198.834 25.331,199.102C24.358,199.73 23.872,200.418 23.872,201.164C23.872,202.031 25.243,202.464 27.989,202.464C31.942,202.464 36.271,201.614 40.97,199.915C45.669,198.218 48.019,196.547 48.019,194.908C48.019,194.133 47.181,193.462 45.508,192.896C43.646,192.3 41.343,192.001 38.6,192.001C37.388,192.001 35.864,192.244 34.027,192.728C32.189,193.214 31.131,193.455 30.853,193.455C29.502,193.455 28.83,193.197 28.83,192.678C28.83,192.342 29.982,191.898 32.288,191.349C34.594,190.8 36.749,190.525 38.752,190.525C41.359,190.525 45.296,189.59 50.562,187.719C55.824,185.849 60.366,183.734 64.186,181.376C68.61,178.695 70.824,176.396 70.824,174.48C70.824,173.537 69.939,172.778 68.172,172.204C66.403,171.629 64.335,171.342 61.962,171.342C58.985,171.342 55.286,171.713 50.867,172.453C51.52,173.015 51.846,173.696 51.846,174.495C51.846,174.614 49.77,176.079 45.619,178.892C40.209,182.564 35.558,185.889 31.663,188.865C27.77,191.842 24.143,194.792 20.785,197.723C17.893,200.182 16.424,201.528 16.377,201.766L16.587,201.854C17.565,201.144 18.777,200.343 20.224,199.453C20.41,199.483 20.573,199.573 20.714,199.72C19.687,200.9 18.662,202.08 17.635,203.258C15.77,205.32 14.579,206.354 14.067,206.354C13.321,206.354 12.645,205.984 12.038,205.247C11.431,204.598 11.129,204.011 11.129,203.479C11.129,202.742 12.598,200.959 15.536,198.125C18.24,195.472 21.366,192.73 24.912,189.898C32.934,183.528 40.419,177.97 47.369,173.22C40.249,174.604 32.78,176.532 24.963,179.001C17.796,181.269 14.214,182.667 14.214,183.195C14.214,183.342 14.375,183.415 14.702,183.415C16.746,183.415 23.462,181.118 34.852,176.521C35.502,176.463 35.872,176.565 35.967,176.827C34.896,177.732 31.359,179.282 25.356,181.472C19.213,183.753 15.28,184.891 13.56,184.891C13.049,184.891 12.561,184.731 12.095,184.409C11.63,184.086 11.397,183.706 11.397,183.267C11.397,182.563 14.073,181.128 19.427,178.961C25.245,176.589 31.414,174.583 37.933,172.941C45.986,170.892 52.875,169.866 58.602,169.866C67.913,169.866 72.567,172.146 72.567,176.708Z" style="fill:white;fill-rule:nonzero;"/>
    </g>
    <g transform="matrix(4.16667,0,0,4.16667,0,-367.68)">
        <path d="M74.87,177.229C75.195,177.468 75.078,177.6 74.521,177.629C74.193,177.69 73.68,177.748 72.981,177.808C71.349,179.681 69.11,181.403 66.264,182.977C62.952,184.88 59.99,185.829 57.379,185.829C53.881,185.829 52.133,184.85 52.133,182.888C52.133,181.224 53.843,179.063 57.266,176.403C60.687,173.745 63.375,172.414 65.333,172.414C65.658,172.414 65.982,172.571 66.311,172.884C66.635,173.198 66.891,173.354 67.079,173.354C67.218,173.354 67.741,173.31 68.649,173.22C69.557,173.131 70.244,173.085 70.709,173.085C72.99,173.085 74.133,174.008 74.133,175.848C74.078,175.938 74.078,176.028 74.133,176.115C74.526,176.77 74.771,177.141 74.87,177.229M71.651,174.471C71.651,174.354 71.418,174.292 70.957,174.292C68.136,174.292 64.805,175.46 60.967,177.795C57.312,180.1 55.486,182.008 55.486,183.515C55.486,184.343 56.134,184.755 57.429,184.755C59.186,184.755 61.912,183.679 65.612,181.52C69.171,179.45 70.953,178.017 70.953,177.219C70.479,176.806 70.242,176.466 70.242,176.2C70.242,175.784 70.477,175.387 70.946,175.001C71.416,174.617 71.651,174.441 71.651,174.471Z" style="fill:white;fill-rule:nonzero;"/>
    </g>
    <g transform="matrix(4.16667,0,0,4.16667,0,-448.169)">
        <path d="M119.942,172.712C119.942,174.961 117.301,177.95 112.023,181.677C107.584,184.842 102.049,188.039 95.416,191.263C89.25,194.251 84.368,196.232 80.771,197.206C80.069,197.829 79.135,198.97 77.969,200.625C76.707,202.459 76.077,203.716 76.077,204.396C76.077,205.255 76.636,205.683 77.757,205.683C79.715,205.683 82.516,204.607 86.156,202.452C89.656,200.39 91.407,198.959 91.407,198.162C91.023,197.75 90.832,197.396 90.832,197.1C90.832,195.98 91.411,195.419 92.57,195.419C94.004,195.419 94.723,195.865 94.723,196.758L94.723,197.07C95.043,197.695 95.244,198.054 95.327,198.142C95.651,198.409 95.534,198.559 94.977,198.588C94.695,198.617 94.184,198.678 93.438,198.766C91.805,200.61 89.59,202.337 86.791,203.943C83.434,205.817 80.447,206.756 77.835,206.756C76.296,206.756 75.037,206.496 74.058,205.979C73.077,205.458 72.589,204.726 72.589,203.775C72.589,201.432 75.716,197.487 81.975,191.939C87.858,186.779 94.327,182.048 101.38,177.747C108.944,173.119 114.36,170.805 117.63,170.805C119.171,170.805 119.942,171.442 119.942,172.712M117.796,173.886C117.796,173.354 117.374,173.086 116.536,173.086C115.044,173.086 111.566,174.732 106.108,178.023C101.488,180.782 97.778,183.245 94.98,185.408C89.661,189.44 85.531,192.821 82.593,195.551C86.372,194.484 93.044,191.162 102.608,185.586C112.731,179.654 117.796,175.756 117.796,173.886Z" style="fill:white;fill-rule:nonzero;"/>
    </g>
    <g transform="matrix(4.16667,0,0,4.16667,0,-442.582)">
        <path d="M177.976,176.033C177.976,178.192 176.085,180.544 172.308,183.086C168.528,185.631 163.816,187.73 158.174,189.385C152.108,191.219 146.161,192.135 140.33,192.135C139.49,192.135 138.649,192.091 137.812,192.001C138.276,194.654 138.977,196.937 139.909,198.85C141.401,201.885 143.336,203.402 145.718,203.402C148.188,203.402 150.241,202.738 151.874,201.41C152.385,201.292 152.758,201.396 152.992,201.718C152.339,202.42 151.454,203.063 150.335,203.648C148.794,204.47 147.23,204.878 145.646,204.878C142.147,204.878 139.14,203.447 136.622,200.581C134.709,198.486 133.217,195.83 132.146,192.61C125.335,198.123 121.837,201.175 121.65,201.766L121.86,201.854C122.839,201.144 124.051,200.343 125.497,199.453C125.684,199.483 125.847,199.573 125.987,199.72C124.96,200.9 123.936,202.08 122.908,203.258C121.043,205.32 119.853,206.354 119.341,206.354C118.595,206.354 117.918,205.984 117.312,205.247C116.704,204.598 116.402,204.011 116.402,203.479C116.402,202.742 117.871,200.959 120.81,198.125C123.515,195.472 126.64,192.73 130.186,189.898C138.207,183.528 145.692,177.97 152.643,173.22C145.522,174.604 138.054,176.532 130.236,179.001C123.069,181.269 119.487,182.667 119.487,183.195C119.487,183.342 119.648,183.415 119.976,183.415C122.02,183.415 128.735,181.118 140.123,176.521C140.772,176.463 141.144,176.565 141.238,176.827C140.167,177.732 136.631,179.282 130.63,181.472C124.486,183.753 120.554,184.891 118.833,184.891C118.322,184.891 117.834,184.731 117.368,184.409C116.903,184.086 116.671,183.706 116.671,183.267C116.671,182.563 119.349,181.128 124.709,178.961C130.533,176.589 136.708,174.583 143.233,172.941C151.295,170.892 158.192,169.866 163.926,169.866C168.677,169.866 172.266,170.459 174.69,171.642C176.879,172.706 177.976,174.17 177.976,176.033M176.098,174.725C176.098,172.47 173.156,171.342 167.275,171.342C164.286,171.342 160.576,171.713 156.141,172.453C156.793,173.015 157.119,173.696 157.119,174.495C157.119,174.614 155.045,176.079 150.895,178.89C145.438,182.592 140.775,185.922 136.905,188.882L134.852,190.403C135.644,190.663 136.742,190.793 138.143,190.793C143.137,190.793 148.763,189.8 155.02,187.811C160.715,186.002 165.65,183.808 169.83,181.225C174.007,178.643 176.098,176.478 176.098,174.725Z" style="fill:white;fill-rule:nonzero;"/>
    </g>
    <g transform="matrix(4.16667,0,0,4.16667,0,-367.68)">
        <path d="M180.159,177.229C180.484,177.468 180.366,177.6 179.81,177.629C179.482,177.69 178.969,177.748 178.271,177.808C176.638,179.681 174.399,181.403 171.552,182.977C168.24,184.88 165.278,185.829 162.667,185.829C159.169,185.829 157.42,184.85 157.42,182.888C157.42,181.224 159.131,179.063 162.554,176.403C165.975,173.745 168.664,172.414 170.621,172.414C170.946,172.414 171.271,172.571 171.598,172.884C171.923,173.198 172.179,173.354 172.367,173.354C172.506,173.354 173.029,173.31 173.938,173.22C174.846,173.131 175.533,173.085 175.999,173.085C178.279,173.085 179.421,174.008 179.421,175.848C179.367,175.938 179.367,176.028 179.421,176.115C179.815,176.77 180.062,177.141 180.159,177.229M176.939,174.471C176.939,174.354 176.707,174.292 176.246,174.292C173.425,174.292 170.093,175.46 166.256,177.795C162.6,180.1 160.774,182.008 160.774,183.515C160.774,184.343 161.422,184.755 162.717,184.755C164.474,184.755 167.201,183.679 170.9,181.52C174.46,179.45 176.241,178.017 176.241,177.219C175.768,176.806 175.531,176.466 175.531,176.2C175.531,175.784 175.766,175.387 176.235,175.001C176.705,174.617 176.939,174.441 176.939,174.471Z" style="fill:white;fill-rule:nonzero;"/>
    </g>
    <g transform="matrix(4.16667,0,0,4.16667,0,-368.245)">
        <path d="M204.538,176.996C201.739,179.138 198.754,181.116 195.583,182.932C191.061,185.49 187.562,186.769 185.09,186.769C183.363,186.769 181.976,186.436 180.928,185.768C179.878,185.099 179.354,184.185 179.354,183.023C179.354,180.529 181.173,177.943 184.815,175.267C188.132,172.831 190.863,171.61 193.012,171.61C193.712,171.61 194.517,171.961 195.426,172.657C196.335,173.353 196.793,173.908 196.793,174.323C196.793,174.857 196.539,175.272 196.034,175.568C195.527,175.866 195.044,176.013 194.586,176.013C194.447,176.013 194.378,175.912 194.378,175.709C194.378,175.623 194.423,175.451 194.513,175.191C194.601,174.931 194.646,174.745 194.646,174.627C194.646,174.137 194.457,173.892 194.085,173.892C192.257,173.892 189.982,174.988 187.265,177.181C184.405,179.523 182.976,181.718 182.976,183.759C182.976,185.05 183.791,185.696 185.426,185.696C187.479,185.696 190.769,184.38 195.296,181.743C198.937,179.593 201.809,177.637 203.908,175.881C204.327,175.881 204.583,176.015 204.678,176.283C204.77,176.521 204.725,176.759 204.538,176.996Z" style="fill:white;fill-rule:nonzero;"/>
    </g>
    <g transform="matrix(4.16667,0,0,4.16667,0,-448.165)">
        <path d="M243.153,173.252C243.153,176.309 239.237,179.884 231.406,183.978C226.978,186.321 220.312,188.71 211.408,191.142C209.262,192.952 207.188,194.791 205.185,196.661C206.254,195.897 208.252,194.946 211.183,193.802C214.527,192.51 217.062,191.865 218.782,191.865C219.852,191.865 220.803,192.259 221.642,193.043C222.478,193.827 222.896,194.546 222.896,195.195C222.896,196.084 221.457,196.973 218.577,197.859C215.976,198.66 212.817,199.28 209.103,199.725C209.941,200.022 210.781,200.628 211.622,201.547C212.647,202.672 213.417,203.382 213.931,203.678C215.003,204.389 216.427,204.742 218.199,204.742C219.504,204.742 220.881,204.198 222.327,203.105C222.559,203.195 222.677,203.283 222.677,203.371L222.677,203.595C221.137,204.634 220.181,205.242 219.807,205.42C218.501,206.13 217.218,206.486 215.961,206.486C214.561,206.486 213.417,206.102 212.532,205.33C212.158,205.004 211.528,204.189 210.644,202.884C209.849,201.729 209.057,200.913 208.265,200.438C207.983,200.262 207.541,200.098 206.936,199.949C204.927,200.159 203.085,200.262 201.408,200.262C198.889,202.692 196.835,204.814 195.25,206.621C194.365,206.621 193.921,206.309 193.921,205.686C193.921,204.976 195.694,202.69 199.237,198.834C204.551,193.052 210.423,187.593 216.858,182.462C226.555,174.78 234.154,170.938 239.656,170.938C240.403,170.938 241.173,171.206 241.964,171.739C242.757,172.273 243.153,172.778 243.153,173.252M220.079,195.508C220.079,194.69 219.382,194.279 217.989,194.279C216.829,194.279 214.229,194.952 210.19,196.298C206.848,197.438 204.479,198.331 203.087,198.973C205.548,198.973 208.993,198.558 213.429,197.724C217.862,196.89 220.079,196.151 220.079,195.508M204.485,199.504C204.25,199.476 204.041,199.461 203.856,199.461C203.529,199.461 203.436,199.461 203.577,199.461C203.762,199.49 204.065,199.504 204.485,199.504M241.007,173.892C241.007,173.354 240.587,173.085 239.751,173.085C236.865,173.085 232.096,175.371 225.443,179.944C220.512,183.354 216.418,186.566 213.161,189.585C220.464,187.552 226.325,185.325 230.749,182.904C237.585,179.198 241.007,176.192 241.007,173.892Z" style="fill:white;fill-rule:nonzero;"/>
    </g>
    <g transform="matrix(4.16667,0,0,4.16667,0,-368.245)">
        <path d="M249.733,176.996C247.495,178.752 244.906,180.463 241.967,182.128C236.604,185.222 232.244,186.769 228.887,186.769C227.159,186.769 225.771,186.436 224.724,185.768C223.673,185.099 223.149,184.185 223.149,183.023C223.149,180.529 224.969,177.943 228.611,175.267C231.925,172.831 234.656,171.61 236.805,171.61C237.318,171.61 237.832,171.739 238.346,171.995C238.859,172.251 239.35,172.485 239.816,172.694C240.282,172.906 240.772,173.116 241.288,173.326C241.894,173.628 242.198,173.976 242.198,174.365C242.198,175.329 240.467,176.457 237.008,177.751C234.063,178.836 231.235,179.618 228.523,180.098C227.354,181.515 226.771,182.732 226.771,183.755C226.771,185.05 227.587,185.696 229.222,185.696C231.787,185.696 235.405,184.424 240.072,181.879C243.76,179.851 246.77,177.851 249.104,175.881C249.523,175.881 249.779,176.015 249.873,176.283C249.966,176.521 249.92,176.759 249.733,176.996M239.649,174.638C239.649,174.142 239.063,173.892 237.889,173.892C235.964,173.892 233.477,175.252 230.425,177.969C232.114,177.735 234.109,177.181 236.411,176.302C238.57,175.484 239.649,174.931 239.649,174.638Z" style="fill:white;fill-rule:nonzero;"/>
    </g>
    <g transform="matrix(4.16667,0,0,4.16667,0,-386.686)">
        <path d="M280.405,163.557C279.565,163.588 278.423,164.052 276.979,164.947C276.558,165.635 276.23,165.976 275.999,165.976C275.812,165.976 275.496,165.807 275.054,165.466C274.61,165.127 274.39,164.882 274.39,164.733C274.39,164.674 274.704,164.238 275.333,163.425C275.962,162.611 276.278,161.971 276.278,161.497C276.278,160.817 275.883,160.476 275.09,160.476C273.876,160.476 272.104,161.525 269.772,163.626C268.138,165.106 266.809,166.525 265.783,167.883C263.964,170.161 261.189,173.607 257.458,178.221C258.437,178.221 260.793,178.442 264.524,178.885C265.035,178.944 265.293,179.02 265.293,179.107C265.293,179.522 264.967,179.713 264.314,179.685L256.618,179.195C253.679,182.78 249.131,188.049 242.978,195.008C237.707,200.515 233.299,203.269 229.753,203.269C228.4,203.269 227.376,202.88 226.676,202.104C226.069,201.449 225.79,200.673 225.835,199.78L225.835,199.244C225.882,198.588 226.396,197.5 227.374,195.98C228.447,194.31 229.382,193.476 230.175,193.476C230.501,193.476 230.688,193.609 230.733,193.878C228.722,195.905 227.713,197.917 227.713,199.915C227.713,201.524 228.411,202.329 229.808,202.329C231.995,202.329 235.974,199.013 241.742,192.384C243.463,190.401 246.931,186.063 252.141,179.374C249.948,179.314 247.36,179.566 244.374,180.128C243.815,180.187 243.536,179.996 243.536,179.552C243.536,179.257 243.861,179.078 244.516,179.02C247.313,178.487 250.206,178.177 253.191,178.087C254.729,175.986 257.6,172.525 261.798,167.703C266.926,162.26 271.264,159.536 274.809,159.536C275.929,159.536 276.744,160.038 277.258,161.038C277.677,161.832 277.814,162.627 277.677,163.419C278.47,163.123 279.123,162.916 279.637,162.796C280.337,162.916 280.593,163.169 280.405,163.557Z" style="fill:white;fill-rule:nonzero;"/>
    </g>
    <g transform="matrix(4.16667,0,0,4.16667,0,-368.245)">
        <path d="M286.603,176.996C284.364,178.752 281.775,180.463 278.837,182.128C273.474,185.222 269.113,186.769 265.756,186.769C264.028,186.769 262.641,186.436 261.593,185.768C260.542,185.099 260.019,184.185 260.019,183.023C260.019,180.529 261.838,177.943 265.481,175.267C268.795,172.831 271.525,171.61 273.674,171.61C274.188,171.61 274.701,171.739 275.215,171.995C275.729,172.251 276.219,172.485 276.686,172.694C277.151,172.906 277.642,173.116 278.157,173.326C278.764,173.628 279.067,173.976 279.067,174.365C279.067,175.329 277.336,176.457 273.878,177.751C270.933,178.836 268.104,179.618 265.393,180.098C264.223,181.515 263.641,182.732 263.641,183.755C263.641,185.05 264.456,185.696 266.091,185.696C268.656,185.696 272.274,184.424 276.941,181.879C280.629,179.851 283.639,177.851 285.974,175.881C286.393,175.881 286.648,176.015 286.743,176.283C286.835,176.521 286.789,176.759 286.603,176.996M276.519,174.638C276.519,174.142 275.932,173.892 274.758,173.892C272.834,173.892 270.346,175.252 267.294,177.969C268.983,177.735 270.979,177.181 273.28,176.302C275.439,175.484 276.519,174.931 276.519,174.638Z" style="fill:white;fill-rule:nonzero;"/>
    </g>
    <g transform="matrix(4.16667,0,0,4.16667,0,-448.173)">
        <path d="M320.119,173.473C320.119,175.805 315.485,179.777 306.221,185.388C303.937,186.746 297.58,190.262 287.151,195.931C284.356,199.712 282.96,202.224 282.96,203.462C282.96,204.497 283.749,205.013 285.325,205.013C286.437,205.013 287.362,204.822 288.104,204.44C288.335,204.383 288.452,204.453 288.452,204.656L288.383,204.916C287.169,205.607 285.723,205.951 284.045,205.951C281.712,205.951 280.546,205.082 280.546,203.339C280.546,202.718 280.685,202.054 280.966,201.343C282.223,198.419 284.998,194.608 289.287,189.911C293.806,184.948 298.468,180.798 303.27,177.461C308.861,173.562 313.546,171.61 317.323,171.61C319.187,171.61 320.119,172.23 320.119,173.473M317.571,174.87C317.571,174.309 317.313,174.025 316.802,174.025C313.72,174.025 308.636,176.785 301.542,182.305C295.477,186.965 291.345,190.688 289.152,193.477C292.51,191.668 298.134,188.463 306.021,183.862C309.055,182.054 311.737,180.228 314.069,178.387C316.402,176.547 317.571,175.375 317.571,174.87Z" style="fill:white;fill-rule:nonzero;"/>
    </g>
    <g transform="matrix(4.16667,0,0,4.16667,0,-448.173)">
        <path d="M333.761,173.473C333.761,175.805 329.127,179.777 319.862,185.388C317.58,186.746 311.223,190.262 300.793,195.931C297.998,199.712 296.604,202.224 296.604,203.462C296.604,204.497 297.391,205.013 298.967,205.013C300.078,205.013 301.004,204.822 301.747,204.44C301.977,204.383 302.095,204.453 302.095,204.656L302.025,204.916C300.812,205.607 299.365,205.951 297.687,205.951C295.354,205.951 294.188,205.082 294.188,203.339C294.188,202.718 294.326,202.054 294.607,201.343C295.865,198.419 298.641,194.608 302.929,189.911C307.447,184.948 312.109,180.798 316.911,177.461C322.503,173.562 327.188,171.61 330.966,171.61C332.828,171.61 333.761,172.23 333.761,173.473M331.213,174.87C331.213,174.309 330.955,174.025 330.443,174.025C327.362,174.025 322.277,176.785 315.184,182.305C309.118,186.965 304.987,190.688 302.795,193.477C306.152,191.668 311.776,188.463 319.663,183.862C322.696,182.054 325.38,180.228 327.713,178.387C330.045,176.547 331.213,175.375 331.213,174.87Z" style="fill:white;fill-rule:nonzero;"/>
    </g>
    <g transform="matrix(4.16667,0,0,4.16667,0,-368.245)">
        <path d="M332.636,176.996C330.396,178.752 327.809,180.463 324.87,182.128C319.506,185.222 315.146,186.769 311.789,186.769C310.062,186.769 308.674,186.436 307.626,185.768C306.576,185.099 306.052,184.185 306.052,183.023C306.052,180.529 307.871,177.943 311.514,175.267C314.828,172.831 317.56,171.61 319.708,171.61C320.221,171.61 320.734,171.739 321.248,171.995C321.762,172.251 322.252,172.485 322.72,172.694C323.185,172.906 323.676,173.116 324.191,173.326C324.797,173.628 325.101,173.976 325.101,174.365C325.101,175.329 323.369,176.457 319.91,177.751C316.966,178.836 314.139,179.618 311.426,180.098C310.257,181.515 309.674,182.732 309.674,183.755C309.674,185.05 310.489,185.696 312.124,185.696C314.689,185.696 318.308,184.424 322.976,181.879C326.662,179.851 329.672,177.851 332.007,175.881C332.427,175.881 332.682,176.015 332.776,176.283C332.869,176.521 332.822,176.759 332.636,176.996M322.552,174.638C322.552,174.142 321.965,173.892 320.791,173.892C318.867,173.892 316.379,175.252 313.327,177.969C315.017,177.735 317.012,177.181 319.313,176.302C321.472,175.484 322.552,174.931 322.552,174.638Z" style="fill:white;fill-rule:nonzero;"/>
    </g>
    <g transform="matrix(4.16667,0,0,4.16667,0,-374.386)">
        <path d="M348.434,181.747C346.893,182.984 344.933,184.237 342.552,185.503C339.284,187.241 336.554,188.109 334.36,188.109C333.521,188.109 332.774,187.927 332.12,187.558C331.466,187.191 331.142,186.698 331.142,186.08C331.142,185.258 332.369,183.89 334.83,181.978C337.289,180.066 338.52,178.949 338.52,178.625C338.52,178.419 338.144,178.316 337.398,178.316C337.071,178.316 336.382,178.342 335.329,178.392C334.276,178.442 333.424,178.465 332.771,178.465C330.431,178.465 329.264,177.943 329.264,176.897C329.264,176.181 330.278,175.144 332.307,173.782C334.336,172.425 336.049,171.743 337.448,171.743C338.895,171.743 339.617,171.999 339.617,172.511C339.617,172.871 338.763,173.676 337.057,174.923C335.349,176.17 334.495,176.839 334.495,176.927C334.495,177.139 335.422,177.243 337.278,177.243C340.341,177.243 341.873,177.989 341.873,179.479C341.873,180.136 340.643,181.387 338.185,183.236C335.723,185.084 334.495,186.141 334.495,186.409C334.495,186.828 334.775,187.035 335.34,187.035C336.748,187.035 338.859,186.332 341.676,184.919C343.177,184.169 345.407,182.846 348.362,180.953C348.922,180.953 348.945,181.219 348.434,181.747Z" style="fill:white;fill-rule:nonzero;"/>
    </g>
    <g transform="matrix(4.16667,0,0,4.16667,0,-272.644)">
        <path d="M23.921,180.059C23.921,180.059 158.067,151.083 321.189,176.84C321.189,176.84 170.945,157.522 31.433,184.352L23.921,180.059Z" style="fill:white;fill-rule:nonzero;"/>
    </g>
</svg>
